<svg width="19" height="20" viewBox="0 0 19 20" fill="none" xmlns="http://www.w3.org/2000/svg">
<path d="M7.86397 0.48291H17.8693C17.9169 0.482907 17.9626 0.501687 17.9965 0.535173C18.0303 0.56866 18.0496 0.614149 18.0501 0.661768V3.05987C18.0501 3.10783 18.0311 3.15383 17.9972 3.18775C17.9632 3.22167 17.9172 3.24072 17.8693 3.24072C17.8213 3.24072 17.7753 3.22167 17.7414 3.18775C17.7075 3.15383 17.6884 3.10783 17.6884 3.05987V0.842625H8.04483V5.06328C8.04483 5.11125 8.02577 5.15725 7.99186 5.19116C7.95794 5.22508 7.91194 5.24414 7.86397 5.24414H0.510625V19.4059H17.6884V6.62304H11.2723V8.76035C11.2723 8.80831 11.2533 8.85432 11.2194 8.88823C11.1855 8.92215 11.1395 8.9412 11.0915 8.9412C11.0435 8.9412 10.9975 8.92215 10.9636 8.88823C10.9297 8.85432 10.9106 8.80831 10.9106 8.76035V6.44219C10.9106 6.39422 10.9297 6.34822 10.9636 6.3143C10.9975 6.28038 11.0435 6.26133 11.0915 6.26133H17.8693C17.893 6.26133 17.9165 6.26601 17.9385 6.2751C17.9604 6.28418 17.9804 6.29751 17.9972 6.3143C18.014 6.33109 18.0273 6.35103 18.0364 6.37297C18.0455 6.39492 18.0501 6.41843 18.0501 6.44219V19.5868C18.0501 19.6105 18.0455 19.634 18.0364 19.656C18.0273 19.6779 18.014 19.6979 17.9972 19.7146C17.9804 19.7314 17.9604 19.7448 17.9385 19.7539C17.9165 19.7629 17.893 19.7676 17.8693 19.7676H0.330763C0.282796 19.7676 0.236793 19.7486 0.202875 19.7146C0.168957 19.6807 0.149902 19.6347 0.149902 19.5868V5.06328C0.149902 5.01531 0.168957 4.96931 0.202875 4.93539C0.236793 4.90148 0.282796 4.88242 0.330763 4.88242H7.68311V0.661768C7.68363 0.614149 7.70292 0.56866 7.73678 0.535173C7.77064 0.501687 7.81635 0.482907 7.86397 0.48291Z" fill="#555555" stroke="#555555" stroke-width="0.29982"/>
<path d="M11.0915 11.5723H13.2479C13.2958 11.5723 13.3418 11.5913 13.3757 11.6252C13.4097 11.6592 13.4287 11.7052 13.4287 11.7531C13.4287 11.8011 13.4097 11.8471 13.3757 11.881C13.3418 11.9149 13.2958 11.934 13.2479 11.934H11.2724V13.6017C11.2724 13.6496 11.2533 13.6956 11.2194 13.7295C11.1855 13.7635 11.1395 13.7825 11.0915 13.7825H0.329787C0.281819 13.7825 0.235817 13.7635 0.201899 13.7295C0.167981 13.6956 0.148926 13.6496 0.148926 13.6017C0.148926 13.5537 0.167981 13.5077 0.201899 13.4738C0.235817 13.4399 0.281819 13.4208 0.329787 13.4208H10.9106V11.7521C10.9109 11.7043 10.9301 11.6586 10.964 11.6249C10.9979 11.5912 11.0437 11.5723 11.0915 11.5723Z" fill="#555555" stroke="#555555" stroke-width="0.29982"/>
<path d="M16.1086 11.5723H17.8696C17.9175 11.5723 17.9636 11.5913 17.9975 11.6252C18.0314 11.6592 18.0505 11.7052 18.0505 11.7532C18.0505 11.8011 18.0314 11.8471 17.9975 11.8811C17.9636 11.915 17.9175 11.934 17.8696 11.934H16.1086C16.0607 11.934 16.0146 11.915 15.9807 11.8811C15.9468 11.8471 15.9277 11.8011 15.9277 11.7532C15.9277 11.7052 15.9468 11.6592 15.9807 11.6252C16.0146 11.5913 16.0607 11.5723 16.1086 11.5723Z" fill="#555555" stroke="#555555" stroke-width="0.29982"/>
<path d="M11.0915 16.1497C11.1395 16.1497 11.1855 16.1687 11.2194 16.2026C11.2534 16.2366 11.2724 16.2826 11.2724 16.3305V19.5876C11.2724 19.6356 11.2534 19.6816 11.2194 19.7155C11.1855 19.7494 11.1395 19.7685 11.0915 19.7685C11.0436 19.7685 10.9976 19.7494 10.9636 19.7155C10.9297 19.6816 10.9106 19.6356 10.9106 19.5876V16.3305C10.9106 16.2826 10.9297 16.2366 10.9636 16.2026C10.9976 16.1687 11.0436 16.1497 11.0915 16.1497Z" fill="#555555" stroke="#555555" stroke-width="0.29982"/>
</svg>
