<svg width="18" height="17" viewBox="0 0 18 17" fill="none" xmlns="http://www.w3.org/2000/svg">
<path d="M8.99996 0.0266113C4.40829 0.0266113 0.666626 3.76828 0.666626 8.35995C0.666626 12.9516 4.40829 16.6933 8.99996 16.6933C13.5916 16.6933 17.3333 12.9516 17.3333 8.35995C17.3333 3.76828 13.5916 0.0266113 8.99996 0.0266113ZM12.9833 6.44328L8.25829 11.1683C8.14163 11.2849 7.98329 11.3516 7.81663 11.3516C7.64996 11.3516 7.49163 11.2849 7.37496 11.1683L5.01663 8.80995C4.77496 8.56828 4.77496 8.16828 5.01663 7.92661C5.25829 7.68494 5.65829 7.68494 5.89996 7.92661L7.81663 9.84328L12.1 5.55995C12.3416 5.31828 12.7416 5.31828 12.9833 5.55995C13.225 5.80161 13.225 6.19328 12.9833 6.44328Z" fill="#555555"/>
</svg>
