<svg width="25" height="18" viewBox="0 0 25 18" fill="none" xmlns="http://www.w3.org/2000/svg">
<path d="M21.7392 8.08696H3.09985C3.00575 8.08696 2.9155 8.0496 2.84897 7.98309C2.78243 7.91658 2.74505 7.82638 2.74505 7.73232V3.08597C2.74611 2.27581 3.06855 1.49913 3.64166 0.926261C4.21478 0.35339 4.99179 0.0310866 5.8023 0.0300293L19.0367 0.0300293C19.8472 0.0310866 20.6242 0.35339 21.1973 0.926261C21.7705 1.49913 22.0929 2.27581 22.094 3.08597V7.73232C22.094 7.77889 22.0848 7.82501 22.067 7.86803C22.0491 7.91106 22.023 7.95016 21.99 7.98309C21.9571 8.01602 21.918 8.04214 21.8749 8.05997C21.8319 8.07779 21.7858 8.08696 21.7392 8.08696ZM3.45464 7.37767H21.3844V3.08197C21.3836 2.45985 21.136 1.86343 20.6959 1.42352C20.2558 0.983606 19.6591 0.736116 19.0367 0.735323H5.8023C5.1799 0.736116 4.58323 0.983606 4.14313 1.42352C3.70303 1.86343 3.45544 2.45985 3.45464 3.08197V7.37767Z" fill="black"/>
<path d="M12.4195 8.08687H4.83684C4.74275 8.08687 4.6525 8.0495 4.58597 7.98299C4.51943 7.91648 4.48205 7.82628 4.48205 7.73222V4.74421C4.48284 4.18143 4.70685 3.64193 5.10497 3.24399C5.50308 2.84604 6.04281 2.62213 6.60583 2.62134H10.6495C11.2125 2.62213 11.7523 2.84604 12.1504 3.24399C12.5485 3.64193 12.7725 4.18143 12.7733 4.74421V7.73222C12.7733 7.82611 12.7361 7.91616 12.6697 7.98264C12.6034 8.04912 12.5134 8.0866 12.4195 8.08687ZM5.19164 7.37758H12.0647V4.74421C12.0642 4.36947 11.915 4.01022 11.6499 3.74524C11.3848 3.48026 11.0254 3.33116 10.6505 3.33063H6.60683C6.23193 3.33116 5.87253 3.48026 5.60743 3.74524C5.34233 4.01022 5.19317 4.36947 5.19264 4.74421L5.19164 7.37758Z" fill="black"/>
<path d="M19.9972 8.08687H12.4145C12.3679 8.08687 12.3218 8.07769 12.2787 8.05987C12.2357 8.04205 12.1966 8.01592 12.1636 7.98299C12.1307 7.95006 12.1045 7.91097 12.0867 7.86794C12.0689 7.82491 12.0597 7.77879 12.0597 7.73222V4.74421C12.0605 4.18143 12.2845 3.64193 12.6826 3.24399C13.0807 2.84604 13.6205 2.62213 14.1835 2.62134H18.2272C18.7903 2.62187 19.3302 2.8457 19.7283 3.2437C20.1265 3.6417 20.3504 4.18135 20.351 4.74421V7.73222C20.351 7.82611 20.3137 7.91616 20.2474 7.98264C20.1811 8.04912 20.0911 8.0866 19.9972 8.08687ZM12.7693 7.37758H19.6424V4.74421C19.6418 4.36947 19.4927 4.01022 19.2276 3.74524C18.9625 3.48026 18.6031 3.33116 18.2282 3.33063H14.1845C13.8096 3.33116 13.4502 3.48026 13.1851 3.74524C12.92 4.01022 12.7708 4.36947 12.7703 4.74421L12.7693 7.37758Z" fill="black"/>
<path d="M24.0668 16.8572H0.773177C0.67908 16.8572 0.588836 16.8198 0.522298 16.7533C0.455761 16.6868 0.418381 16.5966 0.418381 16.5026V10.7913C0.419439 9.88625 0.779577 9.01861 1.41979 8.37867C2.06001 7.73873 2.92802 7.37874 3.83342 7.37769H21.0056C21.9112 7.37848 22.7794 7.73835 23.4199 8.37832C24.0603 9.01829 24.4206 9.88608 24.4216 10.7913V16.5026C24.4216 16.5966 24.3842 16.6868 24.3177 16.7533C24.2512 16.8198 24.1609 16.8572 24.0668 16.8572ZM1.12897 16.1479H23.716V10.7913C23.7152 10.0743 23.4299 9.3869 22.9227 8.87992C22.4156 8.37294 21.7279 8.08777 21.0106 8.08697H3.83342C3.11631 8.08803 2.42889 8.37332 1.9219 8.88027C1.41492 9.38723 1.12977 10.0745 1.12897 10.7913V16.1479Z" fill="black"/>
<path d="M3.05381 18.0095C2.95972 18.0095 2.8695 17.9721 2.80297 17.9056C2.73645 17.8391 2.69907 17.7488 2.69907 17.6548V16.5156C2.69907 16.4215 2.73645 16.3313 2.80297 16.2648C2.8695 16.1983 2.95972 16.1609 3.05381 16.1609C3.14789 16.1609 3.23811 16.1983 3.30464 16.2648C3.37116 16.3313 3.40854 16.4215 3.40854 16.5156V17.6548C3.40854 17.7013 3.39936 17.7475 3.38153 17.7905C3.36371 17.8335 3.33758 17.8727 3.30464 17.9056C3.2717 17.9385 3.23259 17.9647 3.18956 17.9825C3.14652 18.0003 3.10039 18.0095 3.05381 18.0095Z" fill="black"/>
<path d="M21.7391 18.0095C21.645 18.0095 21.5548 17.9721 21.4883 17.9056C21.4217 17.8391 21.3844 17.7488 21.3844 17.6548V16.5156C21.3844 16.4215 21.4217 16.3313 21.4883 16.2648C21.5548 16.1983 21.645 16.1609 21.7391 16.1609C21.8332 16.1609 21.9234 16.1983 21.9899 16.2648C22.0565 16.3313 22.0938 16.4215 22.0938 16.5156V17.6548C22.0938 17.7488 22.0565 17.8391 21.9899 17.9056C21.9234 17.9721 21.8332 18.0095 21.7391 18.0095Z" fill="black"/>
</svg>
