<svg width="24" height="19" viewBox="0 0 24 19" fill="none" xmlns="http://www.w3.org/2000/svg">
<path d="M20.597 15.8931H1.56806C1.36834 15.8928 1.17687 15.8133 1.03564 15.672C0.894418 15.5307 0.814962 15.3392 0.814697 15.1394V1.82423C0.814962 1.62442 0.894418 1.43288 1.03564 1.29159C1.17687 1.15031 1.36834 1.07082 1.56806 1.07056H20.597C20.7965 1.07109 20.9877 1.15069 21.1287 1.29195C21.2698 1.4332 21.3491 1.62459 21.3493 1.82423V15.1394C21.3493 15.3391 21.2701 15.5307 21.129 15.672C20.988 15.8133 20.7966 15.8928 20.597 15.8931ZM1.56806 1.4364C1.46524 1.4364 1.36664 1.47726 1.29393 1.54999C1.22123 1.62272 1.18039 1.72137 1.18039 1.82423V15.1394C1.18039 15.2423 1.22123 15.3409 1.29393 15.4136C1.36664 15.4864 1.46524 15.5272 1.56806 15.5272H20.597C20.6996 15.527 20.798 15.486 20.8705 15.4133C20.9429 15.3406 20.9837 15.2421 20.9836 15.1394V1.82423C20.9837 1.72154 20.9429 1.62305 20.8705 1.55034C20.798 1.47764 20.6996 1.43666 20.597 1.4364H1.56806Z" fill="#555555" stroke="#555555" stroke-width="0.299796"/>
<path d="M21.1665 4.56503H0.997543C0.949049 4.56503 0.902542 4.54575 0.868251 4.51145C0.833961 4.47715 0.814697 4.43062 0.814697 4.38211V1.82423C0.814962 1.62442 0.894418 1.43288 1.03564 1.29159C1.17687 1.15031 1.36834 1.07082 1.56806 1.07056H20.597C20.7965 1.07109 20.9877 1.15069 21.1287 1.29195C21.2698 1.4332 21.3491 1.62459 21.3493 1.82423V4.38211C21.3493 4.43062 21.3301 4.47715 21.2958 4.51145C21.2615 4.54575 21.215 4.56503 21.1665 4.56503ZM1.18339 4.19919H20.9866V1.82423C20.9866 1.72154 20.9459 1.62305 20.8735 1.55034C20.801 1.47764 20.7026 1.43666 20.6 1.4364H1.56806C1.46524 1.4364 1.36664 1.47726 1.29393 1.54999C1.22123 1.62272 1.18039 1.72137 1.18039 1.82423L1.18339 4.19919Z" fill="#555555" stroke="#555555" stroke-width="0.299796"/>
<path d="M22.5923 18.109H3.27863C3.07891 18.1087 2.88744 18.0292 2.74622 17.8879C2.60499 17.7466 2.52553 17.5551 2.52527 17.3553V15.71C2.52527 15.6615 2.54453 15.615 2.57882 15.5807C2.61311 15.5464 2.65962 15.5271 2.70811 15.5271H20.593C20.6956 15.5268 20.794 15.4858 20.8665 15.4131C20.939 15.3404 20.9797 15.2419 20.9797 15.1393V3.46637C20.9797 3.41785 20.9989 3.37133 21.0332 3.33702C21.0675 3.30272 21.114 3.28345 21.1625 3.28345H22.5883C22.788 3.28371 22.9795 3.3632 23.1207 3.50448C23.262 3.64577 23.3414 3.83731 23.3417 4.03712V17.3523C23.3422 17.5519 23.2636 17.7436 23.1232 17.8855C22.9827 18.0273 22.7919 18.1076 22.5923 18.109ZM2.89096 15.8929V17.3553C2.89122 17.4581 2.93215 17.5566 3.0048 17.6292C3.07744 17.7019 3.1759 17.7429 3.27863 17.7431H22.5923C22.6949 17.7429 22.7933 17.7019 22.8658 17.6292C22.9383 17.5565 22.979 17.458 22.979 17.3553V4.04012C22.979 3.93743 22.9383 3.83893 22.8658 3.76623C22.7933 3.69353 22.6949 3.65255 22.5923 3.65229H21.3444V15.1393C21.3444 15.339 21.2651 15.5305 21.1241 15.6718C20.983 15.8131 20.7916 15.8927 20.592 15.8929H2.89096Z" fill="#555555" stroke="#555555" stroke-width="0.299796"/>
<path d="M10.6674 12.1117H7.27625V11.7628L9.06574 9.7357C9.33194 9.44964 9.56644 9.13561 9.76515 8.79911C9.89114 8.57873 9.95985 8.33025 9.96498 8.07643C9.97956 7.77691 9.87667 7.48353 9.67822 7.25879C9.57242 7.15273 9.44526 7.07043 9.3052 7.01734C9.16515 6.96426 9.01539 6.94162 8.86591 6.95092C8.69299 6.93882 8.51946 6.96327 8.35661 7.02269C8.19376 7.0821 8.04524 7.17515 7.92071 7.29577C7.69696 7.54981 7.58117 7.88119 7.59798 8.21936H7.18133L7.17334 8.19638C7.16258 7.98355 7.19639 7.77083 7.27261 7.57184C7.34884 7.37286 7.46579 7.192 7.61597 7.04088C7.78043 6.88006 7.97638 6.75504 8.1915 6.67367C8.40661 6.5923 8.63623 6.55635 8.86591 6.56809C9.07154 6.5581 9.27711 6.58881 9.47085 6.65844C9.6646 6.72808 9.8427 6.83529 9.99495 6.97391C10.1379 7.11531 10.2494 7.28522 10.3224 7.47258C10.3954 7.65994 10.4282 7.86057 10.4186 8.06143C10.4113 8.38638 10.3133 8.70281 10.1358 8.97503C9.90314 9.34208 9.63904 9.68823 9.3465 10.0096L7.84177 11.7088L7.84977 11.7278H10.6634L10.6674 12.1117Z" fill="black"/>
<path d="M14.7559 8.05443C14.7609 8.33468 14.6695 8.60815 14.4971 8.82909C14.3192 9.05403 14.0791 9.22159 13.8067 9.31088C14.1174 9.40022 14.3952 9.57845 14.606 9.82366C14.8046 10.0574 14.9112 10.3556 14.9057 10.6623C14.918 10.8762 14.8799 11.09 14.7945 11.2866C14.7092 11.4831 14.5789 11.6568 14.4142 11.7938C14.041 12.0511 13.5985 12.1889 13.1452 12.1889C12.692 12.1889 12.2495 12.0511 11.8763 11.7938C11.7126 11.6558 11.5835 11.4814 11.4992 11.2846C11.4149 11.0878 11.3777 10.874 11.3907 10.6603C11.3861 10.3525 11.4925 10.0534 11.6905 9.81766C11.8999 9.57087 12.1782 9.39231 12.4898 9.30488C12.2184 9.21673 11.9797 9.04927 11.8044 8.8241C11.6352 8.60256 11.5461 8.33018 11.5516 8.05143C11.5394 7.84662 11.5729 7.64166 11.6498 7.45147C11.7267 7.26127 11.8451 7.09061 11.9962 6.95191C12.3277 6.69748 12.7339 6.55957 13.1517 6.55957C13.5696 6.55957 13.9757 6.69748 14.3072 6.95191C14.4601 7.09011 14.5798 7.26101 14.6575 7.4519C14.7351 7.64279 14.7688 7.84874 14.7559 8.05443ZM14.4561 10.6643C14.461 10.505 14.4298 10.3467 14.3649 10.2011C14.3 10.0555 14.2031 9.92652 14.0814 9.82366C13.8195 9.60328 13.4853 9.48789 13.1432 9.4998C12.801 9.48624 12.4661 9.60183 12.205 9.82366C12.0852 9.92766 11.99 10.0571 11.9264 10.2025C11.8628 10.3479 11.8324 10.5056 11.8373 10.6643C11.8294 10.8228 11.8581 10.981 11.9211 11.1266C11.9842 11.2722 12.08 11.4013 12.201 11.5039C12.4758 11.7021 12.806 11.8088 13.1447 11.8088C13.4835 11.8088 13.8137 11.7021 14.0884 11.5039C14.2111 11.4023 14.3085 11.2736 14.373 11.1279C14.4375 10.9822 14.4673 10.8235 14.4601 10.6643H14.4561ZM14.3023 8.05043C14.3059 7.90318 14.2781 7.75684 14.2207 7.62119C14.1634 7.48553 14.0777 7.36368 13.9695 7.26378C13.7462 7.05373 13.4487 6.94086 13.1422 6.94992C12.8373 6.93795 12.5398 7.04554 12.3129 7.24978C12.2051 7.35221 12.1205 7.4766 12.0648 7.61455C12.0091 7.7525 11.9837 7.9008 11.9902 8.04943C11.9842 8.19448 12.0102 8.33907 12.0663 8.47294C12.1224 8.60682 12.2073 8.7267 12.3149 8.8241C12.5507 9.01258 12.8435 9.11526 13.1452 9.11526C13.447 9.11526 13.7398 9.01258 13.9755 8.8241C14.0843 8.72755 14.1704 8.60811 14.2276 8.47435C14.2847 8.34058 14.3116 8.19582 14.3062 8.05043H14.3023Z" fill="black"/>
<path d="M4.81128 -0.0100098H6.80992V1.98863H4.81128V-0.0100098Z" fill="black"/>
<path d="M15.802 -0.0100098H17.8006V1.98863H15.802V-0.0100098Z" fill="black"/>
<path d="M19.5342 14.3096H17.3847C17.3606 14.3096 17.3369 14.3049 17.3147 14.2957C17.2925 14.2865 17.2723 14.273 17.2553 14.256C17.2384 14.2391 17.2249 14.2189 17.2157 14.1967C17.2065 14.1745 17.2018 14.1507 17.2018 14.1267C17.2018 14.1027 17.2065 14.0789 17.2157 14.0567C17.2249 14.0346 17.2384 14.0144 17.2553 13.9974C17.2723 13.9804 17.2925 13.967 17.3147 13.9578C17.3369 13.9486 17.3606 13.9438 17.3847 13.9438H19.5342C19.5582 13.9438 19.582 13.9486 19.6042 13.9578C19.6264 13.967 19.6465 13.9804 19.6635 13.9974C19.6805 14.0144 19.694 14.0346 19.7032 14.0567C19.7123 14.0789 19.7171 14.1027 19.7171 14.1267C19.7171 14.1507 19.7123 14.1745 19.7032 14.1967C19.694 14.2189 19.6805 14.2391 19.6635 14.256C19.6465 14.273 19.6264 14.2865 19.6042 14.2957C19.582 14.3049 19.5582 14.3096 19.5342 14.3096Z" fill="#555555" stroke="#555555" stroke-width="0.299796"/>
</svg>
