<svg width="10" height="15" viewBox="0 0 10 15" fill="none" xmlns="http://www.w3.org/2000/svg">
<path d="M5.04642 1.13489C3.86349 1.13489 2.7953 1.53071 2.0386 2.24939C1.2283 3.01899 0.800003 4.12302 0.800003 5.44202C0.800003 6.13872 1.1202 7.4622 2.6456 9.81104C3.49762 11.123 4.42971 12.3022 5.03824 13.049C5.63671 12.296 6.55771 11.1028 7.39536 9.78491C8.88692 7.43823 9.2 6.12797 9.2 5.44202C9.2 4.12867 8.78459 3.02713 7.99867 2.25659C7.2609 1.53326 6.21244 1.13489 5.04642 1.13489ZM5.04642 0.334961C7.80784 0.334961 10 2.2338 10 5.44202C10 8.59522 5.12999 14.1407 5.04637 14.33C4.95907 14.1414 0 8.63704 0 5.44202C0 2.19105 2.28499 0.334961 5.04642 0.334961ZM5.04637 14.33C5.04345 14.3366 5.04942 14.3365 5.04637 14.33V14.33Z" fill="#696969"/>
<path d="M5 6.41016C5.82843 6.41016 6.5 5.73858 6.5 4.91016C6.5 4.08173 5.82843 3.41016 5 3.41016C4.17157 3.41016 3.5 4.08173 3.5 4.91016C3.5 5.73858 4.17157 6.41016 5 6.41016Z" fill="#696969"/>
</svg>
