<svg width="22" height="23" viewBox="0 0 22 23" fill="none" xmlns="http://www.w3.org/2000/svg">
<path d="M21.2234 21.952H5.5873C5.48577 21.952 5.38839 21.9117 5.3166 21.8399C5.2448 21.7681 5.20447 21.6707 5.20447 21.5692V19.0429C5.20447 18.9413 5.2448 18.844 5.3166 18.7722C5.38839 18.7004 5.48577 18.6601 5.5873 18.6601H7.77034V16.2337C7.77034 16.1321 7.81068 16.0348 7.88247 15.963C7.95427 15.8912 8.05164 15.8509 8.15317 15.8509H10.3372V13.4255C10.3371 13.3752 10.3469 13.3253 10.3661 13.2788C10.3853 13.2323 10.4135 13.1901 10.449 13.1545C10.4846 13.1189 10.5269 13.0908 10.5734 13.0716C10.6199 13.0524 10.6697 13.0426 10.72 13.0427H12.9031V10.6193C12.9031 10.5177 12.9434 10.4204 13.0152 10.3486C13.087 10.2768 13.1844 10.2365 13.2859 10.2365H15.473V7.81105C15.473 7.70954 15.5133 7.61218 15.5851 7.5404C15.6569 7.46862 15.7543 7.4283 15.8558 7.4283H18.0398V5.00385C18.0397 4.95355 18.0495 4.90372 18.0687 4.85722C18.0879 4.81072 18.1161 4.76848 18.1517 4.73291C18.1872 4.69734 18.2295 4.66915 18.276 4.64996C18.3225 4.63077 18.3724 4.62096 18.4227 4.6211H21.2294C21.3308 4.62136 21.4279 4.6618 21.4995 4.73355C21.5711 4.80531 21.6113 4.90251 21.6113 5.00385V21.5702C21.6111 21.6208 21.601 21.6709 21.5814 21.7176C21.5618 21.7642 21.5331 21.8065 21.497 21.842C21.461 21.8775 21.4182 21.9055 21.3712 21.9244C21.3243 21.9433 21.274 21.9526 21.2234 21.952ZM5.96913 21.1865H20.8416V5.3856H18.7995V7.81105C18.7995 7.91256 18.7592 8.00992 18.6874 8.0817C18.6156 8.15348 18.5182 8.1938 18.4167 8.1938H16.2326V10.6193C16.2326 10.7208 16.1923 10.8181 16.1205 10.8899C16.0487 10.9617 15.9513 11.002 15.8498 11.002H13.6658V13.4284C13.6658 13.5298 13.6256 13.627 13.554 13.6987C13.4824 13.7705 13.3853 13.8109 13.2839 13.8112H11.1009V16.2367C11.1009 16.3382 11.0605 16.4355 10.9887 16.5073C10.917 16.5791 10.8196 16.6194 10.718 16.6194H8.53401V19.0458C8.53401 19.1474 8.49367 19.2447 8.42188 19.3165C8.35008 19.3883 8.25271 19.4286 8.15117 19.4286H5.96813L5.96913 21.1865Z" fill="#555555"/>
<path d="M1.2862 16.2306H0.386592C0.288572 16.2256 0.196222 16.1831 0.128617 16.112C0.0610112 16.0409 0.0233154 15.9465 0.0233154 15.8484C0.0233154 15.7502 0.0610112 15.6558 0.128617 15.5847C0.196222 15.5136 0.288572 15.4711 0.386592 15.4661H1.2862C1.66739 15.4656 2.04433 15.3859 2.39311 15.2321C2.74189 15.0783 3.0549 14.8538 3.31231 14.5727L16.3286 0.330803C16.3625 0.293728 16.4033 0.263685 16.4488 0.24239C16.4943 0.221095 16.5435 0.208965 16.5937 0.206691C16.6438 0.204417 16.6939 0.212045 16.7412 0.22914C16.7884 0.246234 16.8318 0.272459 16.8689 0.306318C16.9059 0.340178 16.936 0.381008 16.9573 0.426478C16.9786 0.471948 16.9907 0.521167 16.993 0.571324C16.9953 0.621482 16.9876 0.671597 16.9705 0.718807C16.9534 0.766017 16.9272 0.809398 16.8933 0.846472L3.87706 15.0923C3.54751 15.451 3.14707 15.7374 2.7011 15.9333C2.25513 16.1292 1.77333 16.2305 1.2862 16.2306Z" fill="#555555"/>
<path d="M1.36319 22.049C1.26166 22.049 1.16428 22.0087 1.09249 21.9369C1.02069 21.8652 0.980358 21.7678 0.980358 21.6663V15.852C0.977706 15.8002 0.985629 15.7483 1.00365 15.6996C1.02166 15.651 1.0494 15.6064 1.08516 15.5688C1.12092 15.5312 1.16397 15.5012 1.21168 15.4807C1.25939 15.4603 1.31077 15.4497 1.36269 15.4497C1.41461 15.4497 1.46599 15.4603 1.5137 15.4807C1.56141 15.5012 1.60446 15.5312 1.64022 15.5688C1.67598 15.6064 1.70372 15.651 1.72173 15.6996C1.73975 15.7483 1.74767 15.8002 1.74502 15.852V21.6663C1.74502 21.7676 1.70483 21.8648 1.63325 21.9366C1.56167 22.0083 1.46455 22.0488 1.36319 22.049Z" fill="#555555"/>
</svg>
