<svg width="20" height="22" viewBox="0 0 20 22" fill="none" xmlns="http://www.w3.org/2000/svg">
<path d="M18 1.02979H2.00002C1.11637 1.02979 0.400024 1.74613 0.400024 2.62979V19.6298C0.400024 20.5134 1.11637 21.2298 2.00002 21.2298H18C18.8837 21.2298 19.6 20.5134 19.6 19.6298V2.62979C19.6 1.74613 18.8837 1.02979 18 1.02979Z" stroke="#555555" stroke-width="0.8"/>
<path d="M7 17.0759V12.5059H10.555C10.9324 12.5146 11.3072 12.4416 11.6537 12.2918C12.0002 12.1419 12.3101 11.9189 12.5623 11.638C12.8144 11.357 13.0028 11.0249 13.1144 10.6643C13.226 10.3037 13.2583 9.92317 13.209 9.54892C13.209 6.47692 10.555 6.62992 10.555 6.62992H7V12.0299" stroke="#555555"/>
</svg>
