<svg width="19" height="14" viewBox="0 0 19 14" fill="none" xmlns="http://www.w3.org/2000/svg">
<path d="M0.75 3.25H18.25" stroke="white" stroke-width="1.5"/>
<path d="M0.75 10.75H18.25" stroke="white" stroke-width="1.5"/>
<path d="M6.75 5.75C8.13071 5.75 9.25 4.63071 9.25 3.25C9.25 1.86929 8.13071 0.75 6.75 0.75C5.36929 0.75 4.25 1.86929 4.25 3.25C4.25 4.63071 5.36929 5.75 6.75 5.75Z" fill="white"/>
<path d="M6.75 5.25C7.85457 5.25 8.75 4.35457 8.75 3.25C8.75 2.14543 7.85457 1.25 6.75 1.25C5.64543 1.25 4.75 2.14543 4.75 3.25C4.75 4.35457 5.64543 5.25 6.75 5.25Z" stroke="white"/>
<path d="M12.75 13.25C14.1307 13.25 15.25 12.1307 15.25 10.75C15.25 9.36929 14.1307 8.25 12.75 8.25C11.3693 8.25 10.25 9.36929 10.25 10.75C10.25 12.1307 11.3693 13.25 12.75 13.25Z" fill="white"/>
<path d="M12.75 12.75C13.8546 12.75 14.75 11.8546 14.75 10.75C14.75 9.64543 13.8546 8.75 12.75 8.75C11.6454 8.75 10.75 9.64543 10.75 10.75C10.75 11.8546 11.6454 12.75 12.75 12.75Z" stroke="white"/>
</svg>
