<svg width="19" height="20" viewBox="0 0 19 20" fill="none" xmlns="http://www.w3.org/2000/svg">
<path d="M8.22398 0.572998H18.2293C18.2769 0.572995 18.3226 0.591775 18.3565 0.625261C18.3903 0.658747 18.4096 0.704237 18.4101 0.751856V3.14996C18.4101 3.19792 18.3911 3.24392 18.3572 3.27784C18.3233 3.31176 18.2772 3.33081 18.2293 3.33081C18.1813 3.33081 18.1353 3.31176 18.1014 3.27784C18.0675 3.24392 18.0484 3.19792 18.0484 3.14996V0.932713H8.40484V5.15337C8.40484 5.20133 8.38578 5.24733 8.35186 5.28125C8.31795 5.31517 8.27194 5.33422 8.22398 5.33422H0.870633V19.496H18.0484V6.71313H11.6324V8.85044C11.6324 8.8984 11.6133 8.9444 11.5794 8.97832C11.5455 9.01224 11.4995 9.03129 11.4515 9.03129C11.4035 9.03129 11.3575 9.01224 11.3236 8.97832C11.2897 8.9444 11.2706 8.8984 11.2706 8.85044V6.53227C11.2706 6.48431 11.2897 6.43831 11.3236 6.40439C11.3575 6.37047 11.4035 6.35142 11.4515 6.35142H18.2293C18.253 6.35142 18.2766 6.35609 18.2985 6.36518C18.3204 6.37427 18.3404 6.38759 18.3572 6.40439C18.374 6.42118 18.3873 6.44112 18.3964 6.46306C18.4055 6.485 18.4101 6.50852 18.4101 6.53227V19.6769C18.4101 19.7006 18.4055 19.7241 18.3964 19.7461C18.3873 19.768 18.374 19.7879 18.3572 19.8047C18.3404 19.8215 18.3204 19.8349 18.2985 19.8439C18.2766 19.853 18.253 19.8577 18.2293 19.8577H0.690771C0.642804 19.8577 0.596801 19.8387 0.562884 19.8047C0.528966 19.7708 0.509911 19.7248 0.509911 19.6769V5.15337C0.509911 5.1054 0.528966 5.0594 0.562884 5.02548C0.596801 4.99156 0.642804 4.97251 0.690771 4.97251H8.04312V0.751856C8.04364 0.704237 8.06293 0.658747 8.09679 0.625261C8.13065 0.591775 8.17635 0.572995 8.22398 0.572998Z" fill="black" stroke="black" stroke-width="0.29982"/>
<path d="M11.4515 11.6624H13.6078C13.6558 11.6624 13.7018 11.6814 13.7357 11.7153C13.7696 11.7492 13.7887 11.7952 13.7887 11.8432C13.7887 11.8912 13.7696 11.9372 13.7357 11.9711C13.7018 12.005 13.6558 12.0241 13.6078 12.0241H11.6323V13.6917C11.6323 13.7397 11.6133 13.7857 11.5794 13.8196C11.5454 13.8535 11.4994 13.8726 11.4515 13.8726H0.689747C0.64178 13.8726 0.595777 13.8535 0.561859 13.8196C0.527941 13.7857 0.508886 13.7397 0.508886 13.6917C0.508886 13.6438 0.527941 13.5978 0.561859 13.5639C0.595777 13.5299 0.64178 13.5109 0.689747 13.5109H11.2706V11.8422C11.2709 11.7944 11.29 11.7487 11.3239 11.715C11.3578 11.6813 11.4037 11.6624 11.4515 11.6624Z" fill="black" stroke="black" stroke-width="0.29982"/>
<path d="M16.4686 11.6624H18.2296C18.2776 11.6624 18.3236 11.6814 18.3575 11.7153C18.3914 11.7493 18.4105 11.7953 18.4105 11.8432C18.4105 11.8912 18.3914 11.9372 18.3575 11.9712C18.3236 12.0051 18.2776 12.0241 18.2296 12.0241H16.4686C16.4207 12.0241 16.3747 12.0051 16.3407 11.9712C16.3068 11.9372 16.2878 11.8912 16.2878 11.8432C16.2878 11.7953 16.3068 11.7493 16.3407 11.7153C16.3747 11.6814 16.4207 11.6624 16.4686 11.6624Z" fill="black" stroke="black" stroke-width="0.29982"/>
<path d="M11.4515 16.2397C11.4995 16.2397 11.5455 16.2588 11.5794 16.2927C11.6133 16.3267 11.6324 16.3727 11.6324 16.4206V19.6777C11.6324 19.7257 11.6133 19.7717 11.5794 19.8056C11.5455 19.8395 11.4995 19.8586 11.4515 19.8586C11.4035 19.8586 11.3575 19.8395 11.3236 19.8056C11.2897 19.7717 11.2706 19.7257 11.2706 19.6777V16.4206C11.2706 16.3727 11.2897 16.3267 11.3236 16.2927C11.3575 16.2588 11.4035 16.2397 11.4515 16.2397Z" fill="black" stroke="black" stroke-width="0.29982"/>
</svg>
