<svg width="29" height="23" viewBox="0 0 29 23" fill="none" xmlns="http://www.w3.org/2000/svg">
<path d="M21.507 20.666H7.47998C5.36158 20.666 1.95255 17.1512 1.95255 14.9696V12.3823C1.95255 12.2808 1.99289 12.1834 2.06469 12.1116C2.1365 12.0398 2.23389 11.9995 2.33544 11.9995H26.6446C26.7453 11.9995 26.8419 12.0391 26.9136 12.1098C26.9852 12.1805 27.0262 12.2766 27.0275 12.3773V14.9686C27.0275 17.1512 23.6224 20.666 21.507 20.666ZM2.71233 12.762V14.9676C2.71233 16.7665 5.73948 19.9015 7.47499 19.9015H21.502C23.2355 19.9015 26.2577 16.7655 26.2577 14.9676V12.763L2.71233 12.762Z" fill="black"/>
<path d="M5.28561 10.9051C5.23532 10.9051 5.18554 10.8952 5.13908 10.8759C5.09263 10.8567 5.05042 10.8285 5.01486 10.793C4.97931 10.7574 4.9511 10.7152 4.93186 10.6688C4.91262 10.6224 4.90271 10.5726 4.90271 10.5223V3.40985C4.88242 2.94834 4.95377 2.48738 5.11267 2.05358C5.27156 1.61979 5.51483 1.22175 5.82845 0.882461C6.10313 0.608252 6.42974 0.391541 6.78918 0.245C7.14863 0.0984583 7.53369 0.0250287 7.92186 0.0290049C8.68572 0.00993777 9.42769 0.285092 9.99429 0.797552C10.5609 1.31001 10.9088 2.02057 10.966 2.78225C10.9701 2.83225 10.9643 2.88257 10.9489 2.93032C10.9335 2.97807 10.9088 3.02233 10.8764 3.06056C10.8439 3.09879 10.8042 3.13026 10.7595 3.15315C10.7148 3.17604 10.6661 3.18992 10.6161 3.19399C10.5661 3.19806 10.5158 3.19224 10.468 3.17686C10.4202 3.16149 10.3759 3.13685 10.3377 3.10437C10.2604 3.03878 10.2124 2.9452 10.2042 2.84421C10.1593 2.27507 9.89745 1.7449 9.47269 1.36326C9.04793 0.981619 8.49276 0.777658 7.92186 0.793518C7.63473 0.789759 7.34972 0.843235 7.0835 0.950821C6.81727 1.05841 6.57516 1.21795 6.3713 1.42012C5.88346 1.96444 5.63176 2.68011 5.6715 3.40985V10.5223C5.6715 10.5728 5.6615 10.6229 5.64207 10.6695C5.62264 10.7161 5.59417 10.7585 5.55829 10.794C5.52242 10.8296 5.47986 10.8577 5.43305 10.8768C5.38625 10.8959 5.33614 10.9055 5.28561 10.9051Z" fill="black"/>
<path d="M27.7473 12.762H1.23275C0.967608 12.762 0.713326 12.6567 0.525843 12.4693C0.338359 12.2818 0.233032 12.0276 0.233032 11.7626V11.3858C0.233032 11.1208 0.338359 10.8666 0.525843 10.6792C0.713326 10.4918 0.967608 10.3865 1.23275 10.3865H27.7473C28.0124 10.3865 28.2667 10.4918 28.4542 10.6792C28.6417 10.8666 28.747 11.1208 28.747 11.3858V11.7626C28.747 12.0276 28.6417 12.2818 28.4542 12.4693C28.2667 12.6567 28.0124 12.762 27.7473 12.762ZM1.23275 11.146C1.16998 11.1465 1.10991 11.1716 1.06543 11.2159C1.02095 11.2602 0.9956 11.3201 0.994817 11.3828V11.7596C0.995853 11.8223 1.02128 11.8821 1.06571 11.9263C1.11014 11.9705 1.17006 11.9957 1.23275 11.9964H27.7473C27.81 11.9957 27.8699 11.9705 27.9143 11.9263C27.9587 11.8821 27.9842 11.8223 27.9852 11.7596V11.3828C27.9844 11.3201 27.9591 11.2602 27.9146 11.2159C27.8701 11.1716 27.81 11.1465 27.7473 11.146H1.23275Z" fill="black"/>
<path d="M12.8737 5.49311C12.7723 5.49285 12.6752 5.4524 12.6036 5.38063C12.5321 5.30886 12.4919 5.21164 12.4919 5.11028C12.4804 4.60979 12.2736 4.13365 11.9156 3.78372C11.5576 3.4338 11.0768 3.23788 10.5762 3.23788C10.0756 3.23788 9.59484 3.4338 9.23683 3.78372C8.87882 4.13365 8.67197 4.60979 8.66054 5.11028C8.65552 5.2083 8.61305 5.30065 8.5419 5.36825C8.47075 5.43586 8.37635 5.47356 8.2782 5.47356C8.18005 5.47356 8.08566 5.43586 8.0145 5.36825C7.94335 5.30065 7.90088 5.2083 7.89587 5.11028C7.88899 4.75394 7.95323 4.3998 8.08484 4.06858C8.21645 3.73736 8.41278 3.43571 8.66235 3.18127C8.91193 2.92683 9.20973 2.72471 9.53835 2.58673C9.86696 2.44875 10.2198 2.37769 10.5762 2.37769C10.9326 2.37769 11.2854 2.44875 11.6141 2.58673C11.9427 2.72471 12.2405 2.92683 12.49 3.18127C12.7396 3.43571 12.936 3.73736 13.0676 4.06858C13.1992 4.3998 13.2634 4.75394 13.2565 5.11028C13.2565 5.16055 13.2466 5.21033 13.2274 5.25678C13.2081 5.30323 13.1799 5.34543 13.1444 5.38098C13.1089 5.41653 13.0666 5.44473 13.0202 5.46397C12.9738 5.48321 12.924 5.49311 12.8737 5.49311Z" fill="black"/>
<path d="M13.7312 5.85022H7.42201C7.37015 5.85287 7.31829 5.84495 7.26959 5.82693C7.22089 5.80892 7.17636 5.78119 7.13871 5.74544C7.10107 5.70968 7.07109 5.66664 7.05061 5.61894C7.03012 5.57124 7.01956 5.51987 7.01956 5.46796C7.01956 5.41605 7.03012 5.36468 7.05061 5.31698C7.07109 5.26928 7.10107 5.22624 7.13871 5.19049C7.17636 5.15473 7.22089 5.127 7.26959 5.10899C7.31829 5.09097 7.37015 5.08305 7.42201 5.0857H13.7312C13.8293 5.09072 13.9216 5.13318 13.9892 5.20431C14.0569 5.27545 14.0946 5.36983 14.0946 5.46796C14.0946 5.56609 14.0569 5.66047 13.9892 5.73161C13.9216 5.80274 13.8293 5.84521 13.7312 5.85022Z" fill="black"/>
<path d="M6.14548 22.0125C6.07264 22.0124 6.00134 21.9915 5.93995 21.9523C5.87855 21.9131 5.82961 21.8572 5.79885 21.7912C5.76809 21.7252 5.7568 21.6517 5.7663 21.5795C5.7758 21.5073 5.8057 21.4393 5.85248 21.3835L6.98048 20.0395C7.04726 19.9671 7.13935 19.9233 7.23761 19.917C7.33588 19.9108 7.43277 19.9426 7.50818 20.0059C7.58358 20.0692 7.63171 20.1592 7.64257 20.257C7.65343 20.3549 7.62618 20.4532 7.56648 20.5315L6.43748 21.8755C6.40183 21.9183 6.3572 21.9528 6.30674 21.9765C6.25627 22.0002 6.20122 22.0125 6.14548 22.0125Z" fill="black"/>
<path d="M22.8341 22.0125C22.7782 22.0126 22.7229 22.0004 22.6723 21.9767C22.6216 21.953 22.5768 21.9185 22.5411 21.8755L21.4121 20.5315C21.3524 20.4532 21.3251 20.3549 21.336 20.257C21.3468 20.1592 21.395 20.0692 21.4704 20.0059C21.5458 19.9426 21.6427 19.9108 21.7409 19.917C21.8392 19.9233 21.9313 19.9671 21.9981 20.0395L23.1291 21.3835C23.1759 21.4393 23.2058 21.5073 23.2153 21.5795C23.2248 21.6517 23.2135 21.7252 23.1827 21.7912C23.1519 21.8572 23.103 21.9131 23.0416 21.9523C22.9802 21.9915 22.9089 22.0124 22.8361 22.0125H22.8341Z" fill="black"/>
</svg>
