<svg width="18" height="22" viewBox="0 0 18 22" fill="none" xmlns="http://www.w3.org/2000/svg">
<path d="M8.3852 13.1592C8.28362 13.1592 8.1862 13.1188 8.11438 13.047C8.04255 12.9752 8.0022 12.8778 8.0022 12.7762V10.6075C8.00923 10.3906 8.08658 10.182 8.22259 10.013C8.3586 9.844 8.54589 9.72381 8.7562 9.67056L16.9152 7.91375C17.0772 7.88775 17.1632 7.81376 17.1632 7.71377V4.22014C17.1632 4.19071 17.1515 4.16248 17.1307 4.14166C17.1099 4.12085 17.0816 4.10916 17.0522 4.10916H15.6752C15.5771 4.10414 15.4847 4.06166 15.4171 3.99048C15.3495 3.91931 15.3118 3.82488 15.3118 3.7267C15.3118 3.62852 15.3495 3.53409 15.4171 3.46291C15.4847 3.39174 15.5771 3.34925 15.6752 3.34424H17.0522C17.2844 3.3445 17.5071 3.43687 17.6713 3.60108C17.8356 3.76528 17.9279 3.98792 17.9282 4.22014V7.71577C17.9232 7.95346 17.8317 8.18118 17.6708 8.35623C17.5099 8.53128 17.2907 8.64165 17.0542 8.66667L8.9482 10.4115C8.8732 10.4365 8.7662 10.5115 8.7662 10.6115V12.7802C8.76515 12.8808 8.72461 12.9768 8.65333 13.0477C8.58204 13.1186 8.48574 13.1587 8.3852 13.1592Z" fill="#555555"/>
<path d="M9.45312 21.6471H7.39512C7.15642 21.6471 6.9275 21.5523 6.75872 21.3835C6.58994 21.2148 6.49512 20.9859 6.49512 20.7472V13.803C6.49512 13.515 6.72912 12.3911 7.39512 12.3911H9.45312C10.1161 12.3911 10.3531 13.515 10.3531 13.803V20.7472C10.3531 20.9859 10.2583 21.2148 10.0895 21.3835C9.92073 21.5523 9.69181 21.6471 9.45312 21.6471ZM7.47312 13.159C7.35607 13.3565 7.28435 13.5774 7.26312 13.806V20.7502C7.26312 20.7852 7.27702 20.8188 7.30178 20.8435C7.32653 20.8683 7.36011 20.8822 7.39512 20.8822H9.45312C9.48813 20.8822 9.5217 20.8683 9.54646 20.8435C9.57121 20.8188 9.58512 20.7852 9.58512 20.7502V13.806C9.56358 13.5774 9.49151 13.3564 9.37412 13.159H7.47312Z" fill="#555555"/>
<path d="M14.2782 6.85191H2.44116C1.96914 6.85138 1.5166 6.66373 1.18274 6.3301C0.848877 5.99646 0.66095 5.54407 0.660156 5.0721L0.660156 2.38139C0.660686 1.90926 0.848496 1.45661 1.18238 1.12276C1.51627 0.788906 1.96897 0.601115 2.44116 0.600586H14.2782C14.7503 0.601115 15.203 0.788906 15.5369 1.12276C15.8708 1.45661 16.0586 1.90926 16.0592 2.38139V5.0721C16.0584 5.54407 15.8704 5.99646 15.5366 6.3301C15.2027 6.66373 14.7502 6.85138 14.2782 6.85191ZM2.44116 1.3645C2.17178 1.36477 1.91351 1.47188 1.72303 1.66234C1.53255 1.8528 1.42542 2.11104 1.42516 2.38039V5.07111C1.42569 5.34028 1.53293 5.59827 1.72338 5.78851C1.91383 5.97875 2.17195 6.08573 2.44116 6.086H14.2782C14.5474 6.08573 14.8055 5.97875 14.9959 5.78851C15.1864 5.59827 15.2936 5.34028 15.2942 5.07111V2.38039C15.2939 2.11104 15.1868 1.8528 14.9963 1.66234C14.8058 1.47188 14.5475 1.36477 14.2782 1.3645H2.44116Z" fill="#555555"/>
<path d="M14.1051 5.36893H2.47813C2.42625 5.37159 2.37438 5.36366 2.32566 5.34564C2.27694 5.32762 2.2324 5.29987 2.19475 5.2641C2.15709 5.22832 2.12711 5.18526 2.10662 5.13753C2.08613 5.08981 2.07556 5.03841 2.07556 4.98647C2.07556 4.93454 2.08613 4.88314 2.10662 4.83541C2.12711 4.78769 2.15709 4.74463 2.19475 4.70885C2.2324 4.67308 2.27694 4.64533 2.32566 4.62731C2.37438 4.60929 2.42625 4.60136 2.47813 4.60402H14.1091C14.2072 4.60903 14.2996 4.65151 14.3672 4.72269C14.4348 4.79386 14.4726 4.88829 14.4726 4.98647C14.4726 5.08466 14.4348 5.17909 14.3672 5.25026C14.2996 5.32144 14.2072 5.36392 14.1091 5.36893H14.1051Z" fill="#555555"/>
</svg>
