<svg width="16" height="16" viewBox="0 0 16 16" fill="none" xmlns="http://www.w3.org/2000/svg">
<path d="M1.14001 7.5L15.14 7.5C15.2726 7.5 15.3998 7.55268 15.4936 7.64645C15.5873 7.74021 15.64 7.86739 15.64 8C15.64 8.13261 15.5873 8.25979 15.4936 8.35355C15.3998 8.44732 15.2726 8.5 15.14 8.5L1.14001 8.5C1.00741 8.5 0.880229 8.44732 0.786461 8.35355C0.692693 8.25978 0.640015 8.13261 0.640015 8C0.640015 7.86739 0.692693 7.74021 0.786461 7.64645C0.880229 7.55268 1.00741 7.5 1.14001 7.5Z" fill="black"/>
<path d="M8.14001 0.499991C8.23903 0.499814 8.33587 0.529042 8.41826 0.583971C8.50065 0.6389 8.56487 0.717054 8.60279 0.808528C8.64071 0.900002 8.65061 1.00067 8.63124 1.09778C8.61188 1.19489 8.56411 1.28406 8.49401 1.35399L1.84701 7.99999L8.49401 14.646C8.58508 14.7403 8.63548 14.8666 8.63434 14.9977C8.6332 15.1288 8.58062 15.2542 8.48791 15.3469C8.39521 15.4396 8.2698 15.4922 8.13871 15.4933C8.00761 15.4945 7.88131 15.4441 7.787 15.353L0.787006 8.35299C0.69327 8.25923 0.640612 8.13207 0.640612 7.99949C0.640612 7.86691 0.69327 7.73975 0.787006 7.64599L7.78701 0.645991C7.88071 0.552523 8.00765 0.500019 8.14001 0.499991Z" fill="black"/>
</svg>
