<svg width="16" height="16" viewBox="0 0 16 16" fill="none" xmlns="http://www.w3.org/2000/svg">
<path d="M15.14 8.5H1.14001C1.00741 8.5 0.880229 8.44732 0.786461 8.35355C0.692693 8.25979 0.640015 8.13261 0.640015 8C0.640015 7.86739 0.692693 7.74021 0.786461 7.64645C0.880229 7.55268 1.00741 7.5 1.14001 7.5H15.14C15.2726 7.5 15.3998 7.55268 15.4936 7.64645C15.5873 7.74021 15.64 7.86739 15.64 8C15.64 8.13261 15.5873 8.25979 15.4936 8.35355C15.3998 8.44732 15.2726 8.5 15.14 8.5Z" fill="black"/>
<path d="M8.14005 15.5C8.04103 15.5002 7.94419 15.4709 7.8618 15.416C7.77941 15.3611 7.71519 15.2829 7.67727 15.1915C7.63935 15.1 7.62945 14.9993 7.64882 14.9022C7.66818 14.8051 7.71595 14.7159 7.78605 14.646L14.4331 7.99999L7.78605 1.35399C7.69498 1.25969 7.64458 1.13339 7.64572 1.00229C7.64686 0.871195 7.69944 0.745788 7.79215 0.653084C7.88485 0.56038 8.01026 0.507796 8.14135 0.506656C8.27245 0.505517 8.39875 0.555914 8.49306 0.646993L15.4931 7.64699C15.5868 7.74076 15.6394 7.86791 15.6394 8.00049C15.6394 8.13308 15.5868 8.26023 15.4931 8.35399L8.49306 15.354C8.39935 15.4475 8.27241 15.5 8.14005 15.5Z" fill="black"/>
</svg>
